# xmcd
#
# Track frame offsets:
#	150
#	26400
#	46875
#	80550
#	102225
#	136800
#	162900
#	182925
#	203250
#
# Disc length: 3214 seconds
#
# Revision: 1
# Processed by: cddbd v1.5.1PL2 Copyright (c) Steve Scherf et al.
# Submitted via: EasyCDDAExtractor 9.0.0.1
#
DISCID=690c8c09
DTITLE=Tony Martin - Folkets Park Växjö 13-04-06 Disc 1
DYEAR=2006
DGENRE=Hard Rock
TTITLE0=The Lawmaker
TTITLE1=Devil and Daughter
TTITLE2=Eternal Idol
TTITLE3=The Hand That Rocks The Cradle
TTITLE4=Dying For Love
TTITLE5=I Witness
TTITLE6=Odin's Court
TTITLE7=Valhalla
TTITLE8=When Death Calls
EXTD=
EXTT0=
EXTT1=
EXTT2=
EXTT3=
EXTT4=
EXTT5=
EXTT6=
EXTT7=
EXTT8=
PLAYORDER=
